HIERARCHY
ROOT Hips
{
  OFFSET 8.74516 31.8794 24.6222
  CHANNELS 6 Xposition Yposition Zposition Zrotation Xrotation Yrotation
  JOINT LeftHip
  {
    OFFSET 3.43 0 0
    CHANNELS 3 Zrotation Xrotation Yrotation
    JOINT LeftKnee
    {
      OFFSET 0 -18.47 0
      CHANNELS 3 Zrotation Xrotation Yrotation
      JOINT LeftAnkle
      {
        OFFSET 0 -17.95 0
        CHANNELS 3 Zrotation Xrotation Yrotation
        End Site
        {
          OFFSET 0 -3.12 0
        }
      }
    }
  }
  JOINT RightHip
  {
    OFFSET -3.43 0 0
    CHANNELS 3 Zrotation Xrotation Yrotation
    JOINT RightKnee
    {
      OFFSET 0 -18.47 0
      CHANNELS 3 Zrotation Xrotation Yrotation
      JOINT RightAnkle
      {
        OFFSET 0 -17.95 0
        CHANNELS 3 Zrotation Xrotation Yrotation
        End Site
        {
          OFFSET 0 -3.12 0
        }
      }
    }
  }
  JOINT Chest
  {
    OFFSET 0 4.57 0
    CHANNELS 3 Zrotation Xrotation Yrotation
    JOINT CS_BVH
    {
      OFFSET 0 6.57 0
      CHANNELS 3 Zrotation Xrotation Yrotation
      JOINT LeftCollar
      {
        OFFSET 1.06 4.19 1.76
        CHANNELS 3 Zrotation Xrotation Yrotation
        JOINT LeftShoulder
        {
          OFFSET 5.81 0 0
          CHANNELS 3 Zrotation Xrotation Yrotation
          JOINT LeftElbow
          {
            OFFSET 0 -12.08 0
            CHANNELS 3 Zrotation Xrotation Yrotation
            JOINT LeftWrist
            {
              OFFSET 0 -9.82 0
              CHANNELS 3 Zrotation Xrotation Yrotation
              End Site
              {
                OFFSET 0 -7.37 0
              }
            }
          }
        }
      }
      JOINT RightCollar
      {
        OFFSET -1.06 4.19 1.76
        CHANNELS 3 Zrotation Xrotation Yrotation
        JOINT RightShoulder
        {
          OFFSET -6.06 0 0
          CHANNELS 3 Zrotation Xrotation Yrotation
          JOINT RightElbow
          {
            OFFSET 0 -11.08 0
            CHANNELS 3 Zrotation Xrotation Yrotation
            JOINT RightWrist
            {
              OFFSET 0 -9.82 0
              CHANNELS 3 Zrotation Xrotation Yrotation
              End Site
              {
                OFFSET 0 -7.14001 0
              }
            }
          }
        }
      }
      JOINT Neck
      {
        OFFSET 0 4.05 0
        CHANNELS 3 Zrotation Xrotation Yrotation
        JOINT Head
        {
          OFFSET 0 5.19 0
          CHANNELS 3 Zrotation Xrotation Yrotation
          End Site
          {
            OFFSET 0 4.14001 0
          }
        }
      }
    }
  }
}
MOTION
Frames:	9
Frame Time:	0.0333333
9.537 32.823 -33.4859 -4.01127 -6.0053 -5.34924 22.7133 -39.9093 14.9722 0.481826 79.5039 -3.73135 -7.47383 -25.5308 -10.8194 -12.9743 6.97736 -5.57122 0.0206531 56.2155 0.543064 -2.39164 -47.2618 -12.6313 -0.601119 14.029 -0.348334 5.64191 -10.8668 0.513675 10 -6.2816e-014 1.17283e-014 26.58 -65.6174 -14.8901 39.6798 -45.5726 21.3661 -0.0546863 -0.795913 -10.6714 -10 -6.16232e-014 -9.34288e-015 -67.2832 -0.172864 -21.5987 -15.0905 -23.2248 -5.51596 0.0734179 -0.778889 7.81249 -1.31197 -10.0357 -3.17929 4.34393 28.3225 -6.80756 
9.48867 32.8056 -33.4785 -4.08857 -5.93081 -4.91863 22.703 -40.1399 14.7089 0.499922 79.4987 -3.77451 -7.47514 -25.5785 -10.8444 -12.5569 7.14389 -5.67038 0.0211529 56.1498 0.536609 -2.60807 -47.5866 -12.8961 -0.342818 13.9367 -0.540983 5.61829 -11.0743 0.475948 10 -6.2816e-014 1.17283e-014 26.908 -65.3626 -14.8911 39.215 -45.31 21.0073 -0.0626007 -0.848986 -11.3904 -10 -6.16232e-014 -9.34288e-015 -67.4283 0.135671 -20.8496 -15.2356 -23.4111 -5.59297 0.0637788 -0.731359 7.3323 -1.57573 -10.1096 -3.04684 4.87917 28.4821 -6.6275 
9.48191 32.8139 -33.4729 -3.71044 -5.93355 -4.36829 21.8967 -40.3507 14.0451 0.492781 79.3305 -3.76957 -7.42159 -25.3659 -10.777 -12.6684 7.28123 -5.92638 0.0211936 56.1223 0.496073 -3.28693 -47.4552 -14.0441 -0.636926 13.7449 -0.628184 5.4804 -10.8704 0.425322 10 -6.2816e-014 1.17283e-014 27.1687 -65.5748 -14.5785 39.1318 -45.2626 20.9432 -0.0848343 -0.966513 -12.9885 -10 -6.16232e-014 -9.34288e-015 -67.4165 0.457795 -20.6782 -15.3296 -23.531 -5.6431 0.058813 -0.703334 7.04946 -1.21137 -10.6932 -3.08303 4.36351 29.2615 -6.63354 
9.41155 32.8143 -33.4575 -3.73128 -6.03755 -4.06673 21.9353 -40.3908 13.8546 0.501555 79.3552 -3.79646 -7.48697 -25.3148 -11.0742 -12.3609 7.53404 -5.8831 0.0214643 56.2324 0.494347 -3.22271 -48.0435 -13.7349 -0.612736 13.7191 -0.568521 5.42257 -10.8271 0.438606 10 -6.2816e-014 1.17283e-014 27.5685 -65.631 -14.5391 39.2255 -45.316 21.0154 -0.0920617 -0.978243 -13.1485 -10 -6.16232e-014 -9.34288e-015 -67.3158 0.815697 -20.1645 -15.4987 -23.7465 -5.73365 0.0515908 -0.668773 6.70095 -1.54135 -9.96572 -3.13244 5.08618 28.681 -6.8766 
9.39396 32.823 -33.4465 -3.33068 -6.13161 -3.80859 21.3244 -40.3116 13.5199 0.487458 79.248 -3.77888 -7.48328 -25.2163 -11.0604 -12.6241 7.77006 -5.8556 0.0230778 56.1765 0.46547 -3.28437 -48.2208 -13.7611 -0.972417 13.7872 -0.416787 5.22191 -10.6125 0.447547 10 -6.2816e-014 1.17283e-014 28.2021 -65.9827 -14.2039 39.1347 -45.2641 20.9454 -0.0877715 -0.98081 -13.1835 -10 -6.16232e-014 -9.34288e-015 -67.2177 1.01459 -20.4971 -15.5062 -23.756 -5.73768 0.0552015 -0.679455 6.80862 -1.60499 -10.7943 -3.10708 5.43625 29.2756 -6.88055 
9.34406 32.8383 -33.4048 -3.14978 -6.16053 -3.55303 21.0162 -40.2 13.2644 0.468879 79.0289 -3.75674 -7.47485 -25.3024 -10.9959 -12.5099 7.90822 -5.7555 0.0212252 56.1282 0.432152 -3.84189 -48.0759 -14.7193 -1.12199 13.6606 -0.249336 5.14885 -10.6265 0.489807 10 -6.2816e-014 1.17283e-014 27.7439 -65.961 -14.6593 38.9229 -45.1427 20.7825 -0.117463 -1.09008 -14.6786 -10 -6.16232e-014 -9.34288e-015 -67.2309 1.36196 -20.4475 -15.4997 -23.7477 -5.73409 0.057192 -0.683768 6.85211 -1.59853 -10.4604 -3.19681 5.34129 28.9309 -7.04163 
9.27683 32.7935 -33.387 -3.33628 -6.18952 -3.3862 21.329 -40.3347 13.2148 0.5278 79.2057 -3.83627 -7.51716 -25.1982 -11.2231 -12.0832 7.96756 -5.73314 0.0238082 56.3003 0.438992 -4.28868 -48.214 -15.3934 -0.839386 13.5671 -0.182448 5.02107 -10.5718 0.503964 10 -6.2816e-014 1.17283e-014 28.4023 -66.0247 -14.3696 38.779 -45.0596 20.672 -0.118976 -1.11974 -15.0861 -10 -6.16232e-014 -9.34288e-015 -67.1746 1.42034 -20.6057 -15.4237 -23.651 -5.69337 0.0649501 -0.711728 7.13415 -1.36086 -10.191 -3.30304 5.1972 28.4145 -7.2542 
9.26109 32.7993 -33.3613 -3.05728 -6.25711 -2.95591 20.7905 -40.3922 12.7858 0.504961 79.1749 -3.82545 -7.5275 -25.1882 -11.3214 -12.2631 8.21676 -6.04831 0.01617 56.3031 0.428686 -4.58284 -48.0889 -15.8976 -0.986028 13.2998 -0.247258 5.01893 -10.3076 0.477136 10 -6.2816e-014 1.17283e-014 28.6152 -66.121 -14.3088 38.4463 -44.8657 20.4169 -0.136086 -1.18919 -16.0429 -10 -6.16232e-014 -9.34288e-015 -67.2964 1.78094 -20.0661 -15.6274 -23.9096 -5.80278 0.0507405 -0.649724 6.50898 -1.59773 -10.1926 -3.36453 5.35853 28.5251 -7.38248 
9.18161 32.8021 -33.3449 -3.28729 -6.38821 -2.72078 21.0212 -40.342 12.5727 0.456412 79.0883 -3.78742 -7.50388 -25.1383 -11.3051 -11.6525 8.43098 -5.97947 0.0177461 56.2864 0.426264 -4.94487 -48.2181 -16.4534 -0.665295 13.4645 -0.385649 5.10138 -10.4574 0.46357 10 -6.2816e-014 1.17283e-014 28.9549 -65.8852 -14.0517 38.3634 -44.8169 20.3533 -0.154919 -1.25807 -16.9959 -10 -6.16232e-014 -9.34288e-015 -67.3779 1.53183 -20.4001 -15.4839 -23.7277 -5.72563 0.0598202 -0.685416 6.86873 -1.53631 -10.1438 -3.25664 5.01056 28.5434 -7.08602 
